<svg width="206" height="115" viewBox="0 0 206 115" fill="none" xmlns="http://www.w3.org/2000/svg">
<path d="M74.4786 0L63.8232 37.0049C16.7753 42.1843 3.46613 94.6062 48.8428 89.012C-15.0694 106.584 -20.0021 30.5305 56.409 32.3717L74.4786 0Z" fill="#E64B37"/>
<path d="M80.4952 0.697644L62.9016 61.0506C90.4517 13.6362 119.339 55.4766 42.0364 115C145.208 61.8194 111.985 -11.0978 76.7881 37.0045L80.4952 0.697644Z" fill="#0B2240"/>
<path d="M129.083 61.3443V61.3038C129.083 59.058 127.503 57.5912 125.71 57.5912C123.917 57.5912 122.367 58.9973 122.367 61.3038V61.3443C122.367 63.5901 123.907 65.0569 125.71 65.0569C127.513 65.0569 129.083 63.5597 129.083 61.3443ZM119.683 61.3443V61.3038C119.683 57.4597 122.307 55.2746 125.082 55.2746C126.996 55.2746 128.212 56.2154 129.042 57.3181V51.0764H131.706V67.1307H129.042V65.1985C128.181 66.4125 126.976 67.3735 125.082 67.3735C122.347 67.3735 119.683 65.1985 119.683 61.3443Z" fill="#0B2240"/>
<path d="M142.777 60.5044C142.604 58.7847 141.591 57.4493 139.829 57.4493C138.198 57.4493 137.054 58.7037 136.811 60.5044H142.777ZM134.167 61.3643V61.3238C134.167 58.0057 136.527 55.2744 139.849 55.2744C143.546 55.2744 145.42 58.1777 145.42 61.516C145.42 61.7588 145.4 62.0016 145.38 62.2646H136.841C137.125 64.1563 138.472 65.2084 140.184 65.2084C141.48 65.2084 142.412 64.7228 143.334 63.8225L144.893 65.2084C143.789 66.5235 142.27 67.3834 140.143 67.3834C136.77 67.3834 134.177 64.9454 134.177 61.3643" fill="#0B2240"/>
<path d="M146.919 65.6131L148.104 63.8124C149.38 64.7532 150.728 65.2388 151.913 65.2388C153.098 65.2388 153.716 64.7532 153.716 63.9844V63.9439C153.716 63.0436 152.48 62.73 151.123 62.3152C149.401 61.8297 147.486 61.1317 147.486 58.9061V58.8656C147.486 56.6704 149.31 55.325 151.629 55.325C153.077 55.325 154.668 55.8308 155.903 56.6401L154.85 58.5318C153.726 57.854 152.541 57.4291 151.568 57.4291C150.535 57.4291 149.938 57.9147 149.938 58.5723V58.6127C149.938 59.4726 151.194 59.8267 152.561 60.2617C154.252 60.7877 156.167 61.5565 156.167 63.6506V63.691C156.167 66.129 154.273 67.343 151.852 67.343C150.201 67.343 148.378 66.7461 146.919 65.603" fill="#0B2240"/>
<path d="M158.811 55.5172H161.474V67.1305H158.811V55.5172ZM158.699 51.2077H161.566V53.7367H158.699V51.2077Z" fill="#0B2240"/>
<path d="M173.517 60.7468V60.7063C173.517 58.8146 171.957 57.5197 170.104 57.5197C168.25 57.5197 166.802 58.7944 166.802 60.7063V60.7468C166.802 62.6385 168.28 63.9334 170.104 63.9334C171.927 63.9334 173.517 62.6385 173.517 60.7468ZM164.685 69.305L165.677 67.302C166.933 68.0709 168.23 68.5362 169.82 68.5362C172.2 68.5362 173.497 67.302 173.497 64.9753V64.075C172.524 65.3294 171.319 66.2095 169.405 66.2095C166.67 66.2095 164.118 64.1863 164.118 60.7771V60.7367C164.118 57.3073 166.69 55.2841 169.405 55.2841C171.36 55.2841 172.575 56.1844 173.477 57.2668V55.5268H176.14V64.7629C176.14 66.7153 175.634 68.172 174.662 69.1331C173.608 70.1851 171.977 70.6909 169.881 70.6909C167.966 70.6909 166.184 70.2054 164.685 69.305Z" fill="#0B2240"/>
<path d="M179.24 55.5174H181.904V57.2978C182.653 56.2255 183.727 55.2746 185.54 55.2746C188.163 55.2746 189.682 57.0348 189.682 59.7156V67.1307H187.019V60.535C187.019 58.7343 186.117 57.7024 184.527 57.7024C182.937 57.7024 181.904 58.7849 181.904 60.5855V67.1408H179.24V55.5174Z" fill="#0B2240"/>
<path d="M191.708 65.6133L192.893 63.8126C194.17 64.7534 195.517 65.239 196.702 65.239C197.887 65.239 198.505 64.7534 198.505 63.9846V63.9441C198.505 63.0438 197.269 62.7302 195.912 62.3154C194.19 61.8299 192.276 61.1319 192.276 58.9063V58.8658C192.276 56.6706 194.099 55.3252 196.418 55.3252C197.867 55.3252 199.457 55.831 200.693 56.6403L199.639 58.532C198.515 57.8542 197.33 57.4294 196.357 57.4294C195.324 57.4294 194.727 57.9149 194.727 58.5725V58.6129C194.727 59.4728 195.983 59.8269 197.35 60.2619C199.042 60.7879 200.956 61.5567 200.956 63.6508V63.6912C200.956 66.1292 199.062 67.3432 196.641 67.3432C194.99 67.3432 193.167 66.7463 191.708 65.6032" fill="#0B2240"/>
<path d="M102.778 82.2847H101.299V80.0692H102.778V79.2094C102.778 77.9347 103.112 76.9636 103.72 76.3465C104.338 75.7294 105.199 75.4259 106.343 75.4259C107.265 75.4259 107.903 75.5574 108.501 75.7395V77.9853C107.974 77.8032 107.508 77.702 106.941 77.702C105.928 77.702 105.401 78.2483 105.401 79.4623V80.0996H108.48V82.2948H105.442V91.6219H102.778V82.2847Z" fill="#0B2240"/>
<path d="M118.731 85.8661V85.8257C118.731 83.7822 117.252 82.0928 115.165 82.0928C113.079 82.0928 111.661 83.762 111.661 85.7852V85.8257C111.661 87.8489 113.14 89.5383 115.206 89.5383C117.272 89.5383 118.731 87.8691 118.731 85.8661ZM108.997 85.8661V85.8257C108.997 82.5076 111.641 79.756 115.206 79.756C118.771 79.756 121.395 82.457 121.395 85.7751V85.8156C121.395 89.1134 118.751 91.865 115.165 91.865C111.58 91.865 108.997 89.164 108.997 85.8661Z" fill="#0B2240"/>
<path d="M123.501 79.9986H126.165V82.6187C126.895 80.8787 128.232 79.6951 130.278 79.7862V82.5985H130.126C127.796 82.5985 126.165 84.1159 126.165 87.1912V91.612H123.501V79.9986Z" fill="#0B2240"/>
<path d="M136.507 75.5572H139.17V81.7786C139.92 80.7063 140.994 79.7554 142.807 79.7554C145.43 79.7554 146.949 81.5156 146.949 84.1964V91.6014H144.285V85.0057C144.285 83.205 143.384 82.1732 141.794 82.1732C140.204 82.1732 139.17 83.2556 139.17 85.0563V91.6115H136.507V75.5572Z" fill="#0B2240"/>
<path d="M157.889 84.986C157.717 83.2663 156.704 81.9309 154.941 81.9309C153.311 81.9309 152.166 83.1853 151.923 84.986H157.889ZM149.279 85.8459V85.8054C149.279 82.4873 151.639 79.756 154.962 79.756C158.658 79.756 160.532 82.6593 160.532 85.9976C160.532 86.2404 160.512 86.4832 160.492 86.7462H151.953C152.237 88.638 153.584 89.69 155.296 89.69C156.592 89.69 157.514 89.2045 158.446 88.3041L160.006 89.69C158.902 91.0051 157.382 91.865 155.245 91.865C151.872 91.865 149.279 89.427 149.279 85.8459Z" fill="#0B2240"/>
<path d="M170.175 87.4239V86.6349C169.496 86.3719 168.584 86.1695 167.531 86.1695C165.809 86.1695 164.796 86.8979 164.796 88.1017V88.1422C164.796 89.2651 165.789 89.9024 167.065 89.9024C168.827 89.9024 170.175 88.8908 170.175 87.4138M162.203 88.2636V88.2231C162.203 85.7143 164.158 84.4801 167.004 84.4801C168.301 84.4801 169.233 84.6723 170.134 84.9657V84.6825C170.134 83.0335 169.121 82.1534 167.247 82.1534C165.951 82.1534 164.979 82.4367 163.925 82.8818L163.216 80.7877C164.492 80.2212 165.748 79.8469 167.592 79.8469C169.334 79.8469 170.63 80.3123 171.441 81.1418C172.302 81.9814 172.697 83.2055 172.697 84.7229V91.6019H170.104V90.1452C169.314 91.0961 168.098 91.8346 166.316 91.8346C164.138 91.8346 162.203 90.5802 162.203 88.2535" fill="#0B2240"/>
<path d="M178.48 75.557H175.816V91.6113H178.48V75.557Z" fill="#0B2240"/>
<path d="M182.269 88.3943V82.2841H180.79V79.9979H182.269V76.8113H184.932V79.9979H188.062V82.2841H184.932V87.9795C184.932 89.0114 185.459 89.4261 186.361 89.4261C186.958 89.4261 187.485 89.2946 188.012 89.0316V91.2066C187.353 91.5809 186.624 91.8034 185.611 91.8034C183.656 91.8034 182.269 90.9436 182.269 88.3943Z" fill="#0B2240"/>
<path d="M190.524 75.5567H193.187V81.7782C193.937 80.7058 195.011 79.7549 196.824 79.7549C199.447 79.7549 200.966 81.5151 200.966 84.1959V91.6009H198.302V85.0052C198.302 83.2045 197.401 82.1727 195.811 82.1727C194.221 82.1727 193.187 83.2551 193.187 85.0558V91.6111H190.524V75.5567Z" fill="#0B2240"/>
<path d="M203.488 78.0554C203.832 78.0554 204.035 77.8834 204.035 77.6204V77.6001C204.035 77.327 203.832 77.1652 203.488 77.1652H202.799V78.0453H203.488V78.0554ZM203.508 76.6998C203.873 76.6998 204.167 76.8111 204.349 76.9932C204.491 77.1348 204.572 77.3371 204.572 77.5799V77.6001C204.572 78.0453 204.309 78.3285 203.924 78.4297L204.673 79.4716H204.045L203.367 78.5106H202.789V79.4716H202.263V76.6998H203.508ZM205.716 78.1666C205.716 76.8414 204.693 75.7792 203.346 75.7792C201.999 75.7792 200.966 76.8617 200.966 78.1666C200.966 79.4919 201.989 80.5541 203.336 80.5541C204.683 80.5541 205.716 79.4716 205.716 78.1666ZM200.693 78.1768C200.693 76.72 201.867 75.5061 203.356 75.5061C204.845 75.5061 206 76.6998 206 78.1464C206 79.6031 204.825 80.807 203.336 80.807C201.847 80.807 200.693 79.6133 200.693 78.1666" fill="#0B2240"/>
</svg>
